<svg width="35" height="23" viewBox="0 0 35 23" fill="none" xmlns="http://www.w3.org/2000/svg">
<rect x="0.0787048" y="0.69751" width="34.7354" height="22.2307" rx="2.08412" fill="#333333"/>
<path fill-rule="evenodd" clip-rule="evenodd" d="M20.641 14.9697C19.0964 16.093 16.8848 16.6898 14.9891 16.6898C12.3211 16.6898 9.89888 15.7069 8.07342 14.057C7.933 13.9165 8.07343 13.741 8.21385 13.8463C10.1797 15.0048 12.6371 15.6718 15.1295 15.6718C16.8146 15.6718 18.7102 15.3207 20.4304 14.5835C20.6761 14.5133 20.8867 14.7942 20.641 14.9697Z" fill="#FF9201"/>
<path fill-rule="evenodd" clip-rule="evenodd" d="M21.2729 14.2325C21.0623 13.9868 19.974 14.1272 19.4826 14.1623C19.3421 14.1974 19.307 14.057 19.4475 13.9517C20.3251 13.3198 21.7644 13.5304 21.9399 13.7059C22.1154 13.9166 21.9048 15.3559 21.0623 16.058C20.9219 16.1633 20.8165 16.0931 20.8868 15.9527C21.0272 15.5314 21.4484 14.5133 21.2729 14.2325Z" fill="#FF9201"/>
<path fill-rule="evenodd" clip-rule="evenodd" d="M19.5176 9.63381V9.03703C19.5176 8.93171 19.5878 8.89661 19.658 8.89661H22.326C22.3962 8.89661 22.4664 8.96682 22.4664 9.03703V9.5636C22.4664 9.63381 22.3962 9.77423 22.2558 9.94975L20.8516 11.9507C21.3781 11.9507 21.9047 12.0209 22.3962 12.2667C22.5015 12.3369 22.5366 12.4071 22.5366 12.5124V13.1443C22.5366 13.2145 22.4313 13.3198 22.326 13.2847C21.4835 12.8635 20.3952 12.7933 19.4825 13.2847C19.3772 13.3198 19.3069 13.2496 19.3069 13.1443V12.5124C19.3069 12.4071 19.307 12.2667 19.4123 12.0912L21.0271 9.77423H19.6229C19.5878 9.77423 19.5176 9.70402 19.5176 9.63381Z" fill="white"/>
<path fill-rule="evenodd" clip-rule="evenodd" d="M9.72332 13.355H8.91591C8.8457 13.355 8.77548 13.2847 8.77548 13.2145V9.03705C8.77548 8.96684 8.8457 8.89662 8.91591 8.89662H9.68822C9.75843 8.89662 9.82863 8.96684 9.82863 9.03705V9.59872C10.0393 9.07215 10.3903 8.82642 10.9169 8.82642C11.4435 8.82642 11.7594 9.07215 11.97 9.59872C12.1807 9.07215 12.6019 8.82642 13.0934 8.82642C13.4445 8.82642 13.7955 8.96684 14.0412 9.28278C14.287 9.63383 14.2519 10.1604 14.2519 10.5817V13.2145C14.2519 13.2847 14.1816 13.355 14.1114 13.355H13.304C13.2338 13.355 13.1636 13.2847 13.1636 13.2145V11.0029C13.1636 10.8274 13.1636 10.371 13.1285 10.2306C13.0583 9.94977 12.8828 9.87956 12.637 9.87956C12.4264 9.87956 12.2158 10.02 12.1456 10.2306C12.0754 10.4412 12.0754 10.7923 12.0754 11.038V13.2496C12.0754 13.3199 12.0051 13.3901 11.9349 13.3901H11.1275C11.0573 13.3901 10.9871 13.3199 10.9871 13.2496V11.038C10.9871 10.5817 11.0573 9.87956 10.4956 9.87956C9.89885 9.87956 9.93396 10.5466 9.93396 11.038V13.2496C9.86375 13.2847 9.79353 13.355 9.72332 13.355Z" fill="white"/>
<path fill-rule="evenodd" clip-rule="evenodd" d="M24.8185 8.79114C26.0472 8.79114 26.679 9.84429 26.679 11.1432C26.679 12.407 25.9418 13.425 24.8185 13.425C23.6249 13.425 22.993 12.3718 22.993 11.073C22.9579 9.80918 23.6249 8.79114 24.8185 8.79114ZM24.8185 9.66876C24.2217 9.66876 24.1866 10.4762 24.1866 11.0027C24.1866 11.5293 24.1866 12.6176 24.8185 12.6176C25.4504 12.6176 25.4855 11.74 25.4855 11.2134C25.4855 10.8623 25.4855 10.4411 25.3802 10.09C25.2749 9.77408 25.0642 9.66876 24.8185 9.66876Z" fill="white"/>
<path fill-rule="evenodd" clip-rule="evenodd" d="M28.2587 13.3548H27.4513C27.3811 13.3548 27.3109 13.2846 27.3109 13.2144V9.03688C27.3109 8.96667 27.3811 8.89645 27.4513 8.89645H28.2236C28.2938 8.89645 28.364 8.93156 28.364 9.00177V9.63366C28.6098 9.07198 28.9257 8.79114 29.4874 8.79114C29.8384 8.79114 30.2246 8.93156 30.4352 9.28261C30.6458 9.63366 30.6459 10.1953 30.6459 10.5815V13.2144C30.6459 13.2846 30.5756 13.3548 30.5054 13.3548H29.698C29.6278 13.3548 29.5576 13.2846 29.5576 13.2144V10.9325C29.5576 10.4762 29.6278 9.80918 29.031 9.80918C28.8204 9.80918 28.6449 9.9496 28.5747 10.1602C28.4693 10.406 28.4342 10.6868 28.4342 10.9676V13.2144C28.3991 13.2846 28.3289 13.3548 28.2587 13.3548Z" fill="white"/>
<path fill-rule="evenodd" clip-rule="evenodd" d="M17.3762 11.354C17.3762 11.6699 17.3762 11.9508 17.2358 12.2316C17.0953 12.4773 16.8847 12.6178 16.6741 12.6178C16.3581 12.6178 16.1826 12.372 16.1826 12.021C16.1826 11.3189 16.8145 11.2136 17.4113 11.2136V11.354H17.3762ZM18.1836 13.355C18.1134 13.3901 18.0432 13.3901 18.0081 13.3901C17.7272 13.1794 17.6921 13.0741 17.5517 12.8284C17.0953 13.2848 16.7794 13.4252 16.2177 13.4252C15.5156 13.4252 14.989 13.0039 14.989 12.1614C14.989 11.4944 15.3401 11.038 15.8667 10.8274C16.323 10.6168 16.9198 10.5817 17.4113 10.5466V10.4413C17.4113 10.2306 17.4113 10.02 17.306 9.84448C17.2007 9.70406 17.0251 9.63385 16.8496 9.63385C16.5337 9.63385 16.2528 9.80937 16.1826 10.1253C16.1826 10.1955 16.1124 10.2657 16.0422 10.2657L15.2348 10.1955C15.1646 10.1955 15.0944 10.1253 15.1295 10.02C15.305 9.07217 16.1826 8.75623 16.9549 8.75623C17.3411 8.75623 17.8677 8.86154 18.1836 9.17748C18.5698 9.56364 18.5347 10.0551 18.5347 10.5817V11.8455C18.5347 12.2316 18.7102 12.4071 18.8506 12.6178C18.8857 12.688 18.9208 12.7933 18.8506 12.8284C18.64 12.9688 18.3591 13.2145 18.1836 13.355Z" fill="white"/>
<path fill-rule="evenodd" clip-rule="evenodd" d="M6.66918 11.354C6.66918 11.6699 6.66919 11.9508 6.52877 12.2316C6.38835 12.4773 6.17771 12.6178 5.96708 12.6178C5.65113 12.6178 5.47562 12.372 5.47562 12.021C5.47562 11.3189 6.10751 11.2136 6.70429 11.2136V11.354H6.66918ZM7.47661 13.355C7.4064 13.3901 7.33617 13.3901 7.26596 13.3901C6.98512 13.1794 6.95002 13.0741 6.8096 12.8284C6.35324 13.2848 6.0373 13.4252 5.47562 13.4252C4.77352 13.4252 4.24695 13.0039 4.24695 12.1614C4.24695 11.4944 4.598 11.038 5.12457 10.8274C5.58094 10.6168 6.17771 10.5817 6.66918 10.5466V10.4413C6.66918 10.2306 6.66918 10.02 6.56387 9.84448C6.45855 9.70406 6.28303 9.63385 6.10751 9.63385C5.79156 9.63385 5.51071 9.80937 5.4405 10.1253C5.4405 10.1955 5.37031 10.2657 5.3001 10.2657L4.49268 10.1955C4.42247 10.1955 4.35226 10.1253 4.38737 10.02C4.56289 9.07217 5.44051 8.75623 6.21282 8.75623C6.59897 8.75623 7.12554 8.86154 7.44149 9.17748C7.82764 9.56364 7.79254 10.0551 7.79254 10.5817V11.8455C7.79254 12.2316 7.96807 12.4071 8.10849 12.6178C8.1436 12.688 8.1787 12.7933 8.10849 12.8284C7.93297 12.9688 7.65213 13.2145 7.47661 13.355Z" fill="white"/>
</svg>
