<svg width="36" height="23" viewBox="0 0 36 23" fill="none" xmlns="http://www.w3.org/2000/svg">
<rect x="0.785645" y="0.69751" width="34.7354" height="22.2307" rx="2.08412" fill="#306FC8"/>
<mask id="mask0_268_339" style="mask-type:alpha" maskUnits="userSpaceOnUse" x="0" y="0" width="36" height="23">
<rect x="0.785645" y="0.466797" width="34.7354" height="22.2307" rx="2.08412" fill="url(#paint0_linear_268_339)"/>
</mask>
<g mask="url(#mask0_268_339)">
<path d="M15.8188 16.7472V13.511L14.3226 15.1048L15.8188 16.7472Z" fill="white"/>
<path d="M9.54837 13.917V14.6455L11.6877 14.6411V15.4755H9.54837V16.2746H11.9467L13.0633 15.0914L11.9914 13.917H9.54837Z" fill="white"/>
<path d="M18.6372 7.78468C18.7622 7.71404 18.8381 7.57276 18.8381 7.40057C18.8381 7.22838 18.7577 7.10476 18.6372 7.03854C18.521 6.97231 18.3469 6.9679 18.1727 6.9679H16.9668V7.86857H18.1593C18.3469 7.86857 18.5032 7.85974 18.6372 7.78468Z" fill="white"/>
<path d="M2.58109 8.42031H3.91648L3.24655 6.81323L2.58109 8.42031Z" fill="white"/>
<path d="M18.0699 13.917H16.797V14.9325H18.0609C18.4316 14.9325 18.6639 14.7559 18.6639 14.4071C18.6594 14.0583 18.4182 13.917 18.0699 13.917Z" fill="white"/>
<path d="M2.83116 10.0584H3.67081L4.05044 10.9634H7.3331V10.2747L7.62786 10.9634H9.32502L9.61979 10.2659V10.9634H17.7751V9.48881H17.9359C18.052 9.48881 18.0832 9.50206 18.0832 9.68307V10.9634H22.2993V10.6147C22.6343 10.7957 23.1613 10.9634 23.867 10.9634H25.6401L26.0241 10.0584H26.8638L27.2434 10.9634H30.6511V10.1069L31.1737 10.9634H33.9115V5.32983H31.2049V5.99209L30.8164 5.32983H28.0339V5.99209L27.6945 5.32983H23.934C23.2998 5.32983 22.7415 5.41372 22.2993 5.65213V5.32983H19.7089V5.65213C19.4052 5.4093 19.0256 5.32983 18.5969 5.32983H9.11511L8.47198 6.78239L7.82884 5.32983H4.84542V5.99209L4.50599 5.32983H1.96026L0.785645 8.00094V10.9634H2.45154L2.83116 10.0584ZM22.4824 6.59695C22.7951 6.27465 23.2953 6.12454 23.9697 6.12454H24.9031V6.98989H23.9876C23.6258 6.98989 23.4248 7.04287 23.2328 7.23272C23.0631 7.40049 22.9469 7.72279 22.9469 8.14664C22.9469 8.57931 23.0318 8.88395 23.2238 9.09587C23.3668 9.25481 23.6392 9.30338 23.9027 9.30338H24.3404L25.716 6.12454H27.172L28.8289 9.94798V6.12454H30.3206L32.0357 8.93693V6.12454H33.0405V10.1687H31.6471L29.8026 7.14001V10.1687H27.8151L27.4399 9.26364H25.4078L25.0327 10.1687H23.8982C23.4204 10.1687 22.8174 10.0584 22.478 9.7184C22.1341 9.37402 21.9599 8.91044 21.9599 8.17754C21.9599 7.5771 22.0671 7.02963 22.4824 6.59695ZM20.4816 6.12454H21.482V10.1687H20.4816V6.12454ZM15.9931 6.12454H18.244C18.7398 6.12454 19.106 6.1422 19.4186 6.31881C19.7313 6.49982 19.9233 6.76473 19.9233 7.21506C19.9233 7.85524 19.4856 8.18637 19.2266 8.28792C19.441 8.36739 19.6241 8.51309 19.7089 8.63229C19.8474 8.82655 19.8697 9.01199 19.8697 9.36519V10.1687H18.8872V9.65658C18.8872 9.41817 18.9095 9.06497 18.7264 8.87512C18.5879 8.72942 18.3735 8.69852 18.0162 8.69852H16.9667V10.1687H15.9886V6.12454H15.9931ZM12.0539 6.12454H15.3142V6.96782H13.0275V7.6963H15.2561V8.52633H13.0275V9.32546L15.3142 9.32104V10.1643H12.0539V6.12454ZM1.85753 10.1687H0.794577L2.54086 6.12454H3.99684L5.6538 9.94798V6.12454H7.2527L8.52557 8.86629L9.70018 6.12454H11.3259V10.1687H10.3255V7.00314L8.90966 10.1687H8.05215L6.6319 6.99872V10.1687H4.63998L4.26482 9.26364H2.23269L1.85753 10.1687Z" fill="white"/>
<path d="M26.4216 6.81323L25.7561 8.42031H27.0871L26.4216 6.81323Z" fill="white"/>
<path d="M33.3577 14.0097C33.255 14.076 33.2103 14.1731 33.2103 14.3011C33.2103 14.4512 33.2997 14.5572 33.4247 14.6013C33.523 14.6367 33.6346 14.6455 33.7999 14.6455L34.3224 14.6587C34.8628 14.672 35.2201 14.7603 35.439 14.9855C35.4702 15.0164 35.497 15.0473 35.5194 15.0782V13.9391H33.7463C33.5721 13.9391 33.4515 13.9479 33.3577 14.0097Z" fill="white"/>
<path d="M34.2018 17.1134H32.3171V16.2481H34.1929C34.376 16.2481 34.5055 16.2216 34.5859 16.1509C34.6529 16.0891 34.702 16.0008 34.702 15.886C34.702 15.7668 34.6529 15.6741 34.5814 15.6167C34.51 15.5549 34.4073 15.5284 34.242 15.5284C33.3309 15.5019 32.1831 15.5593 32.1831 14.2745C32.1831 13.6962 32.5538 13.0736 33.581 13.0736H35.5238V12.2789H33.715C33.1746 12.2789 32.7682 12.4026 32.4913 12.6012V12.2789H29.8249C29.4007 12.2789 28.8915 12.3805 28.6548 12.6012V12.2789H23.8804V12.6012C23.5008 12.3363 22.8621 12.2789 22.5584 12.2789H19.4098V12.6012C19.1105 12.3143 18.4495 12.2789 18.0431 12.2789H14.5148L13.7064 13.1443L12.9561 12.2789H7.69492V17.9125H12.8623L13.6886 17.0339L14.4746 17.9081L17.6545 17.9125V16.5836H17.9716C18.3915 16.5836 18.8917 16.5748 19.3249 16.3893V17.9125H21.96V16.4379H22.0895C22.2503 16.4379 22.2637 16.4512 22.2637 16.6013V17.9125H30.2358C30.736 17.9125 31.2765 17.7845 31.5712 17.5549V17.9125H34.0991C34.6216 17.9125 35.1397 17.8375 35.5327 17.652V16.6057C35.2782 16.9501 34.8316 17.1134 34.2018 17.1134ZM18.0074 15.7624H16.7926V17.1134H14.89L13.693 15.7845L12.4425 17.1178H8.57029V13.0736H12.5005L13.6975 14.4026L14.9436 13.0736H18.0699C18.8381 13.0736 19.709 13.2944 19.709 14.4114C19.7045 15.5284 18.8604 15.7624 18.0074 15.7624ZM23.8849 15.5814C24.0233 15.7757 24.0457 15.9611 24.0501 16.3143V17.1134H23.0676V16.6013C23.0676 16.3629 23.0899 16.0096 22.9068 15.8198C22.7639 15.6741 22.554 15.6432 22.1967 15.6432H21.1471V17.1134H20.169V13.0692H22.42C22.9157 13.0692 23.2775 13.0869 23.5946 13.2679C23.9072 13.4489 24.0993 13.7138 24.0993 14.1642C24.0993 14.8043 23.6616 15.1355 23.407 15.237C23.6214 15.3165 23.8045 15.4622 23.8849 15.5814ZM27.9 13.9169H25.6178V14.6454H27.8509V15.4798H25.6178V16.279H27.9045V17.1178H24.6441V13.0736H27.9045V13.9169H27.9ZM30.3832 17.1134H28.4806V16.2481H30.3743C30.5574 16.2481 30.6869 16.2216 30.7673 16.1509C30.8343 16.0891 30.8834 16.0008 30.8834 15.886C30.8834 15.7668 30.8343 15.6741 30.7628 15.6167C30.6914 15.5549 30.5887 15.5284 30.4234 15.5284C29.5123 15.5019 28.3645 15.5593 28.3645 14.2745C28.3645 13.6917 28.7352 13.0736 29.7624 13.0736H31.7186V13.939H29.9277C29.749 13.939 29.6329 13.9434 29.5346 14.0052C29.4319 14.0714 29.3917 14.1686 29.3917 14.2966C29.3917 14.4467 29.481 14.5527 29.6061 14.5968C29.7088 14.6322 29.816 14.641 29.9813 14.641L30.5038 14.6542C31.0442 14.6675 31.4015 14.7558 31.6204 14.9809C31.8124 15.184 31.9151 15.418 31.9151 15.8375C31.9196 16.7028 31.3747 17.1134 30.3832 17.1134Z" fill="white"/>
<path d="M22.8174 13.9832C22.7013 13.9214 22.5227 13.917 22.3529 13.917H21.1471V14.8177H22.3395C22.5271 14.8177 22.6879 14.8132 22.8174 14.7382C22.9425 14.6676 23.0184 14.5263 23.0184 14.3541C23.0139 14.1775 22.938 14.0539 22.8174 13.9832Z" fill="white"/>
</g>
<defs>
<linearGradient id="paint0_linear_268_339" x1="18.1534" y1="0.466797" x2="18.1534" y2="22.6975" gradientUnits="userSpaceOnUse">
<stop stop-color="#1B8ABA"/>
<stop offset="1" stop-color="#005D9C"/>
</linearGradient>
</defs>
</svg>
