<svg width="36" height="23" viewBox="0 0 36 23" fill="none" xmlns="http://www.w3.org/2000/svg">
<rect x="0.492554" y="0.69751" width="34.7354" height="22.2307" rx="2.08412" fill="black"/>
<path d="M9.48438 7.77891C9.17498 8.14612 8.67994 8.43575 8.18491 8.39437C8.12303 7.89787 8.36539 7.37033 8.649 7.0445C8.9584 6.66695 9.49985 6.39801 9.93816 6.37732C9.98973 6.89451 9.78862 7.40136 9.48438 7.77891ZM9.933 8.49264C9.21623 8.45126 8.60259 8.90122 8.26226 8.90122C7.91676 8.90122 7.39594 8.51332 6.82871 8.52367C6.09132 8.53401 5.40548 8.95294 5.02905 9.62012C4.25556 10.9545 4.82794 12.9301 5.57565 14.0163C5.94177 14.5541 6.38009 15.1437 6.95763 15.123C7.50423 15.1024 7.72081 14.7662 8.38086 14.7662C9.04606 14.7662 9.23686 15.123 9.8144 15.1127C10.4126 15.1024 10.789 14.5748 11.1551 14.0369C11.5728 13.4267 11.743 12.8319 11.7533 12.8009C11.743 12.7905 10.5982 12.3509 10.5879 11.0269C10.5776 9.92009 11.4903 9.39255 11.5316 9.36152C11.0159 8.59608 10.2115 8.51332 9.933 8.49264ZM14.0738 6.99278V15.0558H15.3217V12.2992H17.0492C18.6271 12.2992 19.7358 11.2131 19.7358 9.6408C19.7358 8.06854 18.6477 6.99278 17.0904 6.99278H14.0738V6.99278ZM15.3217 8.04785H16.7604C17.8433 8.04785 18.4621 8.62711 18.4621 9.64598C18.4621 10.6648 17.8433 11.2493 16.7552 11.2493H15.3217V8.04785V8.04785ZM22.015 15.1179C22.7988 15.1179 23.5259 14.7196 23.8559 14.0887H23.8817V15.0558H25.0368V11.0424C25.0368 9.87871 24.1086 9.12878 22.6802 9.12878C21.3549 9.12878 20.3752 9.88906 20.3391 10.9338H21.4632C21.556 10.4373 22.015 10.1114 22.6441 10.1114C23.4073 10.1114 23.8353 10.4683 23.8353 11.1251V11.5699L22.278 11.663C20.829 11.7509 20.0452 12.3457 20.0452 13.3801C20.0452 14.4248 20.8547 15.1179 22.015 15.1179ZM22.3502 14.1611C21.685 14.1611 21.2621 13.8404 21.2621 13.3491C21.2621 12.8422 21.6695 12.5474 22.4481 12.5009L23.8353 12.413V12.8681C23.8353 13.6232 23.1959 14.1611 22.3502 14.1611ZM26.5786 17.2487C27.7956 17.2487 28.368 16.7832 28.8681 15.3713L31.0597 9.20636H29.7912L28.3215 13.9697H28.2958L26.8261 9.20636H25.5215L27.6357 15.0765L27.5223 15.4334C27.3315 16.0385 27.0221 16.2712 26.4703 16.2712C26.3723 16.2712 26.1815 16.2609 26.1042 16.2505V17.2177C26.1764 17.2384 26.4858 17.2487 26.5786 17.2487Z" fill="white"/>
</svg>
