<svg width="36" height="23" viewBox="0 0 36 23" fill="none" xmlns="http://www.w3.org/2000/svg">
<rect x="0.957947" y="0.69751" width="34.7354" height="22.2307" rx="2.08412" fill="#F7931A"/>
<path d="M10.9138 16.1193C11.1224 16.1193 11.3025 16.1566 11.4539 16.23C11.606 16.3041 11.7315 16.4039 11.8322 16.5294C11.9316 16.6556 12.0055 16.803 12.0532 16.972C12.1006 17.1415 12.1244 17.3236 12.1244 17.5187C12.1244 17.8182 12.0695 18.1013 11.9587 18.368C11.8479 18.6352 11.6976 18.867 11.5063 19.0646C11.3152 19.2621 11.0896 19.4177 10.8294 19.5327C10.5696 19.6478 10.2871 19.7053 9.98388 19.7053C9.94466 19.7053 9.87571 19.7042 9.77832 19.7022C9.68093 19.7002 9.569 19.6901 9.44364 19.6732C9.31748 19.6556 9.18409 19.6296 9.04322 19.5947C8.90244 19.5604 8.76873 19.5125 8.64281 19.4516L9.76876 14.7205L10.7772 14.5642L10.3741 16.2431C10.4604 16.2042 10.5473 16.1741 10.6341 16.1521C10.721 16.1305 10.8142 16.1193 10.9138 16.1193V16.1193ZM10.0679 18.9053C10.2198 18.9053 10.3629 18.8679 10.4974 18.7946C10.6322 18.7211 10.7485 18.622 10.846 18.4985C10.9435 18.3744 11.0206 18.2347 11.0769 18.0785C11.1331 17.9224 11.1616 17.7595 11.1616 17.59C11.1616 17.3818 11.1268 17.2194 11.0574 17.102C10.9881 16.9851 10.8598 16.9263 10.6734 16.9263C10.6123 16.9263 10.5337 16.9379 10.4361 16.9587C10.3382 16.9808 10.2507 17.0267 10.1721 17.0958L9.74289 18.8787C9.76876 18.8833 9.79166 18.8876 9.81119 18.8917C9.83031 18.8961 9.85145 18.8993 9.8725 18.9014C9.89476 18.9039 9.92023 18.9052 9.95101 18.9052C9.98179 18.9052 10.0203 18.9053 10.0679 18.9053V18.9053Z" fill="white"/>
<path d="M13.1702 19.6151H12.2069L13.0204 16.1921H13.9902L13.1702 19.6151ZM13.6389 15.7751C13.5044 15.7751 13.3825 15.7351 13.2744 15.6549C13.1653 15.5752 13.1113 15.4525 13.1113 15.2871C13.1113 15.1961 13.1298 15.1108 13.1665 15.0303C13.2037 14.9499 13.2523 14.8807 13.3132 14.8219C13.374 14.7636 13.4445 14.7169 13.5245 14.6818C13.605 14.6473 13.6907 14.63 13.782 14.63C13.9163 14.63 14.0376 14.67 14.1462 14.7502C14.2543 14.8308 14.3087 14.9535 14.3087 15.118C14.3087 15.2093 14.2903 15.295 14.2534 15.3753C14.2166 15.4557 14.168 15.5249 14.1071 15.5837C14.0468 15.6421 13.9756 15.6885 13.8958 15.7233C13.8152 15.7584 13.7298 15.7751 13.6389 15.7751Z" fill="white"/>
<path d="M14.8344 15.3393L15.8432 15.183L15.5955 16.1919H16.676L16.4809 16.9857H15.4069L15.1208 18.183C15.0945 18.2828 15.0795 18.376 15.0753 18.4627C15.0706 18.5497 15.0816 18.6244 15.1076 18.6873C15.1335 18.7504 15.18 18.799 15.2475 18.8334C15.3147 18.8684 15.4109 18.886 15.5371 18.886C15.641 18.886 15.7422 18.8761 15.8401 18.8565C15.9374 18.8372 16.036 18.8104 16.1358 18.7752L16.2076 19.5174C16.0775 19.5651 15.9365 19.6062 15.7846 19.6408C15.6325 19.6758 15.4525 19.6927 15.2443 19.6927C14.9451 19.6927 14.7131 19.6482 14.5478 19.5598C14.3828 19.4706 14.2661 19.3489 14.1962 19.1948C14.1274 19.0412 14.0966 18.8642 14.1052 18.6647C14.1141 18.4648 14.1443 18.2547 14.1962 18.0334L14.8344 15.3393V15.3393Z" fill="white"/>
<path d="M16.6337 18.2479C16.6337 17.953 16.6814 17.675 16.7768 17.4147C16.872 17.1542 17.0092 16.9264 17.1871 16.7309C17.3645 16.5363 17.5806 16.3822 17.8349 16.2691C18.088 16.1566 18.3714 16.0999 18.6838 16.0999C18.8793 16.0999 19.0539 16.1183 19.2075 16.1554C19.3618 16.1927 19.5014 16.241 19.6277 16.3016L19.2955 17.057C19.2087 17.0218 19.1186 16.9908 19.0255 16.9626C18.9322 16.934 18.8185 16.9201 18.6839 16.9201C18.3624 16.9201 18.1082 17.0309 17.919 17.2518C17.7306 17.4729 17.6357 17.7705 17.6357 18.1437C17.6357 18.3649 17.6834 18.5438 17.7792 18.6807C17.8745 18.8175 18.0506 18.8856 18.3062 18.8856C18.4323 18.8856 18.5541 18.8724 18.6707 18.8467C18.7882 18.8206 18.8919 18.7879 18.9833 18.7491L19.0552 19.5234C18.9334 19.5707 18.799 19.6134 18.6516 19.6507C18.5039 19.6868 18.3281 19.7055 18.1243 19.7055C17.8551 19.7055 17.6273 19.6662 17.441 19.5886C17.2546 19.5099 17.1005 19.4053 16.9792 19.2729C16.8572 19.1401 16.7696 18.9851 16.7155 18.8072C16.6613 18.6295 16.6337 18.4427 16.6337 18.2479V18.2479Z" fill="white"/>
<path d="M20.9125 19.7055C20.6826 19.7055 20.4829 19.6705 20.3135 19.6011C20.1446 19.5318 20.0047 19.4345 19.894 19.3083C19.7832 19.1828 19.7003 19.0341 19.6435 18.8627C19.5867 18.6913 19.5594 18.5016 19.5594 18.2937C19.5594 18.033 19.6012 17.7723 19.6858 17.5124C19.7701 17.2518 19.895 17.0178 20.0604 16.8097C20.2245 16.6014 20.4269 16.431 20.6652 16.2982C20.9033 16.1662 21.1772 16.0999 21.4848 16.0999C21.7105 16.0999 21.9091 16.135 22.0809 16.2043C22.2518 16.2735 22.3926 16.3716 22.5039 16.4971C22.6139 16.6233 22.6976 16.7714 22.7538 16.943C22.8105 17.114 22.8385 17.3042 22.8385 17.5123C22.8385 17.7722 22.7972 18.0329 22.7152 18.2937C22.6332 18.5531 22.5114 18.7878 22.3507 18.9963C22.1903 19.2043 21.9897 19.3746 21.7488 19.5069C21.5082 19.6392 21.2292 19.7055 20.9125 19.7055V19.7055ZM21.3939 16.9202C21.2511 16.9202 21.1249 16.9617 21.0168 17.0436C20.9083 17.1264 20.8172 17.2305 20.7437 17.3561C20.6695 17.4823 20.6144 17.6199 20.5772 17.7694C20.5403 17.9193 20.5223 18.061 20.5223 18.1956C20.5223 18.4128 20.5573 18.5819 20.6262 18.7036C20.696 18.8247 20.8214 18.8857 21.0038 18.8857C21.147 18.8857 21.2726 18.8445 21.3814 18.7617C21.4892 18.6795 21.5804 18.5753 21.6544 18.4495C21.7282 18.324 21.7837 18.186 21.8209 18.0362C21.8573 17.8868 21.8759 17.7443 21.8759 17.61C21.8759 17.3934 21.841 17.2238 21.7715 17.1022C21.7021 16.9811 21.5761 16.9202 21.3939 16.9202Z" fill="white"/>
<path d="M23.8853 19.6151H22.9213L23.7347 16.1921H24.705L23.8853 19.6151V19.6151ZM24.3533 15.7751C24.219 15.7751 24.0972 15.7351 23.9892 15.6549C23.8807 15.5752 23.8262 15.4525 23.8262 15.2871C23.8262 15.1961 23.8449 15.1108 23.8816 15.0303C23.9184 14.9499 23.9673 14.8807 24.0282 14.8219C24.0887 14.7636 24.1598 14.7169 24.2397 14.6818C24.3197 14.6473 24.4054 14.63 24.4964 14.63C24.631 14.63 24.7527 14.67 24.861 14.7502C24.9694 14.8308 25.0241 14.9535 25.0241 15.118C25.0241 15.2093 25.0047 15.295 24.9683 15.3753C24.9319 15.4557 24.883 15.5249 24.8223 15.5837C24.7612 15.6421 24.691 15.6885 24.6109 15.7233C24.5303 15.7584 24.4448 15.7751 24.3533 15.7751V15.7751Z" fill="white"/>
<path d="M25.402 16.3476C25.4752 16.3262 25.5568 16.3005 25.6456 16.2725C25.7347 16.2446 25.8343 16.2185 25.9455 16.1951C26.0555 16.1709 26.1796 16.1513 26.3162 16.1361C26.4527 16.1206 26.6083 16.113 26.7811 16.113C27.2891 16.113 27.6393 16.261 27.8327 16.556C28.0258 16.851 28.0593 17.2547 27.9339 17.7664L27.4908 19.6146H26.5212L26.9507 17.8053C26.9769 17.6923 26.9974 17.5831 27.0126 17.4764C27.028 17.3706 27.0271 17.2774 27.0092 17.1967C26.992 17.117 26.9517 17.0518 26.8891 17.0012C26.8255 16.9515 26.7295 16.9265 26.5993 16.9265C26.4737 16.9265 26.3459 16.94 26.2155 16.966L25.5841 19.6145H24.6141L25.402 16.3476V16.3476Z" fill="white"/>
<path d="M22.7035 9.27064C22.1007 11.6884 19.6516 13.1598 17.2334 12.5568C14.8161 11.9541 13.3445 9.50518 13.9476 7.08759C14.5502 4.66959 16.9992 3.19805 19.4168 3.80082C21.8349 4.4036 23.3064 6.85277 22.7035 9.27064Z" fill="white"/>
<path d="M20.3156 7.53597C20.4055 6.93545 19.9482 6.61263 19.3229 6.39727L19.5258 5.58379L19.0305 5.46039L18.8331 6.25243C18.7029 6.21999 18.5692 6.18939 18.4363 6.15907L18.6352 5.36181L18.1402 5.2384L17.9373 6.0516C17.8295 6.02706 17.7237 6.0028 17.621 5.97727L17.6216 5.97474L16.9386 5.80423L16.8069 6.3331C16.8069 6.3331 17.1743 6.4173 17.1666 6.42251C17.3671 6.47258 17.4034 6.60529 17.3973 6.7105L17.1663 7.63723C17.1801 7.64076 17.198 7.64583 17.2178 7.65373C17.2013 7.64964 17.1836 7.64513 17.1654 7.64076L16.8416 8.93896C16.817 8.99989 16.7548 9.09128 16.6146 9.05658C16.6196 9.06378 16.2547 8.96675 16.2547 8.96675L16.0088 9.53356L16.6533 9.69419C16.7732 9.72423 16.8907 9.75568 17.0063 9.7853L16.8014 10.6081L17.296 10.7315L17.499 9.91745C17.6341 9.95412 17.7653 9.98796 17.8937 10.0198L17.6914 10.8301L18.1866 10.9535L18.3916 10.1322C19.236 10.292 19.871 10.2276 20.1383 9.46389C20.3537 8.84898 20.1276 8.49429 19.6833 8.26299C20.0069 8.18839 20.2506 7.97557 20.3156 7.53597V7.53597ZM19.1841 9.12245C19.0311 9.73735 17.9957 9.40493 17.66 9.32158L17.9319 8.23154C18.2676 8.31531 19.3441 8.48117 19.1841 9.12245ZM19.3373 7.52708C19.1977 8.08642 18.3359 7.80224 18.0563 7.73257L18.3029 6.74393C18.5824 6.8136 19.4827 6.94363 19.3373 7.52708V7.52708Z" fill="#F7931A"/>
</svg>
