<svg width="36" height="23" viewBox="0 0 36 23" fill="none" xmlns="http://www.w3.org/2000/svg">
<rect x="0.664871" y="0.69751" width="34.7354" height="22.2307" rx="2.08412" fill="#2E408B"/>
<path d="M30.5373 9.27704H29.2503L28.4898 12.4484L28.3728 12.8888C28.285 12.9182 28.2265 12.9182 28.1388 12.9476C28.0218 12.9769 27.9048 12.9769 27.7585 12.9769C27.583 12.9769 27.466 12.9476 27.349 12.8888C27.2612 12.8301 27.1735 12.7714 27.1442 12.6833C27.115 12.5952 27.0857 12.4777 27.0857 12.3603C27.0857 12.2428 27.115 12.096 27.1442 11.9785L27.5537 10.3342L27.817 9.24768H26.5007L25.8864 11.8024C25.7987 12.1254 25.7694 12.419 25.7694 12.6539C25.7694 12.9476 25.7987 13.1825 25.8864 13.388C25.9742 13.5936 26.1497 13.7697 26.3837 13.8872C26.6177 14.0047 26.9395 14.0634 27.3197 14.0634C27.6122 14.0634 27.8755 14.034 28.0803 13.9753H28.1095C28.051 14.2396 27.934 14.4451 27.7292 14.6213C27.5245 14.7975 27.2612 14.8856 26.9102 14.8856C26.764 14.8856 26.5885 14.8856 26.4715 14.8562L26.2082 15.9133C26.3837 15.9427 26.5885 15.9427 26.7932 15.9427C27.2027 15.9427 27.5537 15.884 27.817 15.7959C28.1095 15.7078 28.3728 15.561 28.6068 15.3848C28.8115 15.2086 29.0163 14.9737 29.1625 14.68C29.3088 14.3864 29.4258 14.0634 29.5135 13.711L30.3911 9.92305L30.5373 9.27704ZM25.1259 12.0079C25.0382 12.3309 25.0089 12.6833 25.0382 13.0063C25.0674 13.3587 25.2137 13.8285 25.3307 14.0928H24.0729C23.9266 13.8285 23.9266 13.711 23.8974 13.6229C23.7219 13.7697 23.5464 13.8578 23.3416 13.9459C23.1369 14.034 22.9321 14.0928 22.6688 14.0928C22.3763 14.0928 22.1131 14.034 21.9083 13.9459C21.7036 13.8578 21.5281 13.711 21.3818 13.5348C21.2356 13.3587 21.1478 13.1531 21.0893 12.9182C21.0308 12.6833 21.0015 12.4484 21.0015 12.1547C21.0015 11.7436 21.0893 11.3619 21.2063 11.0389C21.3526 10.6865 21.5573 10.3635 21.8206 10.1286C22.0838 9.86433 22.6688 9.27704 23.6926 9.27704H25.7109L25.1259 12.0079ZM24.1899 10.3929C23.5756 10.3929 23.4586 10.3929 23.2246 10.5103C23.0491 10.5984 22.9029 10.7452 22.7566 10.9214C22.6396 11.0683 22.5226 11.2738 22.4348 11.4793C22.3471 11.6849 22.3178 11.9198 22.3178 12.1547C22.3178 12.4484 22.3763 12.6539 22.4641 12.8301C22.5518 13.0063 22.7273 13.065 22.9906 13.065C23.1369 13.065 23.2539 13.0356 23.3709 12.9769C23.4879 12.9182 23.6049 12.8301 23.7219 12.7126C23.7219 12.5658 23.7511 12.419 23.7804 12.2428C23.8096 12.0666 23.8389 11.9198 23.8681 11.8024L24.1899 10.3929ZM20.709 11.1857C20.709 11.6262 20.6213 12.0079 20.5043 12.3603C20.358 12.7126 20.1533 13.0356 19.9193 13.2706C19.656 13.5348 19.3635 13.7404 19.0417 13.8872C18.6907 14.034 18.3105 14.1221 17.9302 14.1221C17.7254 14.1221 17.5207 14.0928 17.3159 14.0634L16.9064 15.6491H15.6194L17.1112 9.30641H18.837C19.1587 9.30641 19.4512 9.36514 19.656 9.45323C19.89 9.54132 20.0948 9.68814 20.241 9.86433C20.3873 10.0405 20.5043 10.2461 20.592 10.481C20.6798 10.6865 20.709 10.9214 20.709 11.1857ZM17.5207 12.9769C17.6084 13.0063 17.7547 13.0063 17.901 13.0063C18.135 13.0063 18.3397 12.9769 18.5445 12.8888C18.72 12.8007 18.8955 12.6833 19.0417 12.5365C19.188 12.3896 19.2757 12.1841 19.3635 11.9785C19.4512 11.773 19.4805 11.5087 19.4805 11.2444C19.4805 10.9802 19.422 10.7746 19.305 10.5984C19.188 10.4222 18.9832 10.3342 18.72 10.3342H18.1935L17.5207 12.9769ZM14.8296 12.9769C14.6541 12.9769 14.5371 12.9476 14.4201 12.8888C14.3323 12.8301 14.2446 12.7714 14.2153 12.6833C14.1861 12.5952 14.1568 12.4777 14.1568 12.3603C14.1568 12.2428 14.1861 12.096 14.2153 11.9785L14.6249 10.3342H16.0874L16.3507 9.24768H14.8589L15.2099 7.86757L13.8351 8.10248L12.9576 11.8317C12.8698 12.1547 12.8406 12.4484 12.8406 12.6833C12.8406 12.9769 12.8698 13.2118 12.9576 13.4174C13.0453 13.6229 13.2208 13.7991 13.4548 13.9166C13.6888 14.034 14.0106 14.0928 14.3908 14.0928C14.6834 14.0928 14.9466 14.0634 15.1514 14.0047C15.1806 14.0047 15.2099 14.0047 15.2391 13.9753L15.5024 12.8595C15.4146 12.8888 15.3269 12.9182 15.2391 12.9182C15.0929 12.9769 14.9759 12.9769 14.8296 12.9769ZM11.5243 9.27704L10.3835 14.0928H11.6705L12.8113 9.27704H11.5243V9.27704ZM12.9283 8.71913L13.1331 7.89693H11.846L11.6413 8.71913H12.9283ZM8.65768 9.27704C8.95018 9.27704 9.18419 9.33577 9.38895 9.42386C9.5937 9.51196 9.76921 9.65878 9.91546 9.83496C10.0617 10.0111 10.1495 10.2167 10.208 10.4516C10.2665 10.6865 10.2957 10.9214 10.2957 11.1857C10.2957 11.5968 10.208 11.9785 10.0617 12.3309C9.91546 12.6833 9.71071 13.0063 9.44745 13.2706C9.18419 13.5642 8.89168 13.7404 8.54067 13.9166C8.18966 14.0634 7.8094 14.1515 7.42914 14.1515H7.10738C6.96112 14.1515 6.81487 14.1515 6.63937 14.1221C6.46386 14.0928 6.28835 14.0634 6.0836 14.0047C5.87884 13.9459 5.70334 13.8872 5.52783 13.7991L7.04888 7.42711L8.39442 7.22156L7.83865 9.48259C7.95565 9.42386 8.07266 9.3945 8.18966 9.36514C8.39442 9.27704 8.51142 9.27704 8.65768 9.27704ZM7.48764 13.0356C7.6924 13.0356 7.89715 12.9769 8.07266 12.8888C8.24816 12.8007 8.42367 12.6539 8.54067 12.4777C8.68693 12.3015 8.77468 12.1254 8.86243 11.9198C8.95018 11.7143 8.97944 11.4794 8.97944 11.2444C8.97944 10.9508 8.92093 10.7452 8.83318 10.5691C8.74543 10.4222 8.54067 10.3342 8.27741 10.3342C8.18966 10.3342 8.10191 10.3342 7.98491 10.3635C7.83865 10.3929 7.7509 10.4516 7.6339 10.5397L7.04888 12.9476C7.22438 12.9769 7.28288 12.9769 7.31214 12.9769C7.37064 13.0356 7.42914 13.0356 7.48764 13.0356Z" fill="white"/>
</svg>
