<svg width="36" height="24" viewBox="0 0 36 24" fill="none" xmlns="http://www.w3.org/2000/svg">
<rect x="0.957947" y="0.90918" width="34.7354" height="22.2307" rx="2.08412" fill="#F8F8F8"/>
<mask id="mask0_268_356" style="mask-type:alpha" maskUnits="userSpaceOnUse" x="0" y="0" width="36" height="24">
<rect x="0.957947" y="0.90918" width="34.7354" height="22.2307" rx="2.08412" fill="#F9F9F9"/>
</mask>
<g mask="url(#mask0_268_356)">
<path d="M10.9987 23.1399H34.5536C35.1778 23.1399 35.6934 22.6243 35.6934 22.0001V14.0219C33.441 15.4601 24.92 20.3991 10.9987 23.1399Z" fill="#F58220"/>
</g>
<path d="M6.32229 9.92126H5.12619V14.0986H6.31595C6.9486 14.0986 7.40544 13.9494 7.80643 13.6164C8.28295 13.2221 8.56478 12.6277 8.56478 12.0128C8.56491 10.7802 7.64376 9.92126 6.32229 9.92126ZM7.2742 13.0594C7.01812 13.2906 6.68565 13.3914 6.15916 13.3914H5.94052V10.6291H6.15916C6.68565 10.6291 7.00511 10.7232 7.2742 10.9669C7.55602 11.2178 7.7255 11.6067 7.7255 12.0068C7.7255 12.4079 7.55602 12.8086 7.2742 13.0594Z" fill="#231F20"/>
<path d="M9.75466 9.92126H8.9398V14.0986H9.75466V9.92126Z" fill="#231F20"/>
<path d="M11.7472 11.5243C11.2583 11.3434 11.1147 11.224 11.1147 10.9984C11.1147 10.7352 11.3705 10.5353 11.7216 10.5353C11.9658 10.5353 12.1664 10.6356 12.3787 10.8736L12.805 10.3153C12.4547 10.0088 12.0355 9.85217 11.5775 9.85217C10.8384 9.85217 10.2746 10.3655 10.2746 11.0491C10.2746 11.6247 10.5371 11.9193 11.3024 12.1947C11.6214 12.3072 11.7837 12.3821 11.8657 12.4325C12.0285 12.5388 12.11 12.6894 12.11 12.8647C12.11 13.2032 11.8409 13.454 11.4774 13.454C11.0887 13.454 10.7757 13.2596 10.5881 12.8968L10.0618 13.4038C10.4372 13.9548 10.888 14.1991 11.5081 14.1991C12.3548 14.1991 12.9488 13.6361 12.9488 12.8274C12.9487 12.1637 12.6741 11.8632 11.7472 11.5243Z" fill="#231F20"/>
<path d="M13.2057 12.013C13.2057 13.2408 14.17 14.1929 15.4107 14.1929C15.7615 14.1929 16.0619 14.1239 16.4323 13.9495V12.9903C16.1065 13.3164 15.818 13.4478 15.4487 13.4478C14.628 13.4478 14.0456 12.8528 14.0456 12.0069C14.0456 11.2049 14.6465 10.5721 15.4109 10.5721C15.7995 10.5721 16.0937 10.7108 16.4325 11.0422V10.0834C16.0748 9.90191 15.7808 9.82678 15.4301 9.82678C14.1953 9.82698 13.2057 10.7984 13.2057 12.013Z" fill="#231F20"/>
<path d="M22.893 12.7272L21.779 9.92126H20.8888L22.6617 14.2059H23.1001L24.9048 9.92126H24.0214L22.893 12.7272Z" fill="#231F20"/>
<path d="M25.2732 14.0988H27.5841V13.3917H26.0874V12.2641H27.5289V11.5564H26.0874V10.6292H27.5841V9.92139H25.2732V14.0988Z" fill="#231F20"/>
<path d="M30.8102 11.1545C30.8102 10.3724 30.2715 9.92126 29.3319 9.92126H28.1237V14.0986H28.9375V12.4206H29.0438L30.1716 14.0987H31.1737L29.8587 12.3388C30.4723 12.214 30.8102 11.7942 30.8102 11.1545ZM29.1756 11.8445H28.9376V10.5793H29.1885C29.6959 10.5793 29.9718 10.7919 29.9718 11.1984C29.9718 11.6184 29.696 11.8445 29.1756 11.8445Z" fill="#231F20"/>
<path d="M18.9207 14.2469C20.148 14.2469 21.143 13.252 21.143 12.0246C21.143 10.7973 20.148 9.80237 18.9207 9.80237C17.6934 9.80237 16.6985 10.7973 16.6985 12.0246C16.6985 13.252 17.6934 14.2469 18.9207 14.2469Z" fill="url(#paint0_linear_268_356)"/>
<path opacity="0.65" d="M18.9207 14.2469C20.148 14.2469 21.143 13.252 21.143 12.0246C21.143 10.7973 20.148 9.80237 18.9207 9.80237C17.6934 9.80237 16.6985 10.7973 16.6985 12.0246C16.6985 13.252 17.6934 14.2469 18.9207 14.2469Z" fill="url(#paint1_linear_268_356)"/>
<path d="M31.3306 10.0785C31.3306 10.0052 31.2801 9.96521 31.1915 9.96521H31.0736V10.3324H31.1612V10.1899L31.264 10.3324H31.3709L31.2502 10.181C31.3021 10.1671 31.3306 10.1295 31.3306 10.0785ZM31.1761 10.1287H31.1613V10.0327H31.177C31.2203 10.0327 31.243 10.0483 31.243 10.0799C31.243 10.1123 31.2201 10.1287 31.1761 10.1287Z" fill="#231F20"/>
<path d="M31.2092 9.82812C31.0309 9.82812 30.8894 9.97037 30.8894 10.1482C30.8894 10.3259 31.0325 10.4684 31.2092 10.4684C31.3829 10.4684 31.5252 10.3243 31.5252 10.1482C31.5252 9.97278 31.3828 9.82812 31.2092 9.82812ZM31.2078 10.4111C31.0675 10.4111 30.9527 10.2944 30.9527 10.1487C30.9527 10.0025 31.066 9.88577 31.2078 9.88577C31.3475 9.88577 31.4613 10.0051 31.4613 10.1487C31.4613 10.2931 31.3476 10.4111 31.2078 10.4111Z" fill="#231F20"/>
<defs>
<linearGradient id="paint0_linear_268_356" x1="20.0582" y1="13.8056" x2="18.5195" y2="11.3965" gradientUnits="userSpaceOnUse">
<stop stop-color="#F89F21"/>
<stop offset="0.2502" stop-color="#F79A23"/>
<stop offset="0.5331" stop-color="#F78E22"/>
<stop offset="0.6196" stop-color="#F68721"/>
<stop offset="0.7232" stop-color="#F48220"/>
<stop offset="1" stop-color="#F27623"/>
</linearGradient>
<linearGradient id="paint1_linear_268_356" x1="19.8152" y1="13.7729" x2="17.5663" y2="9.3774" gradientUnits="userSpaceOnUse">
<stop stop-color="#F68721" stop-opacity="0"/>
<stop offset="0.3587" stop-color="#E27027" stop-opacity="0.2704"/>
<stop offset="0.703" stop-color="#D4612C" stop-opacity="0.5299"/>
<stop offset="0.9816" stop-color="#D15D2D" stop-opacity="0.74"/>
</linearGradient>
</defs>
</svg>
