<svg width="36" height="24" viewBox="0 0 36 24" fill="none" xmlns="http://www.w3.org/2000/svg">
<rect x="0.371796" y="0.90918" width="34.7354" height="22.2307" rx="2.08412" fill="#5485EC"/>
<path d="M17.0249 12.5991V15.6719H16.05V8.0834H18.6355C18.9441 8.07695 19.2509 8.13168 19.5382 8.24444C19.8256 8.35719 20.0878 8.52574 20.3096 8.74035C20.5337 8.94192 20.7121 9.18914 20.8327 9.46537C20.9533 9.74161 21.0134 10.0405 21.009 10.3419C21.0154 10.6449 20.9562 10.9457 20.8355 11.2237C20.7148 11.5016 20.5354 11.7503 20.3096 11.9524C19.8575 12.3835 19.2995 12.5989 18.6355 12.5985H17.0249V12.5991ZM17.0249 9.01766V11.6666H18.6597C18.8389 11.672 19.0173 11.6398 19.1834 11.5722C19.3494 11.5047 19.4996 11.4032 19.6242 11.2743C19.7482 11.1538 19.8467 11.0096 19.914 10.8503C19.9813 10.6911 20.016 10.5199 20.016 10.347C20.016 10.1741 19.9813 10.0029 19.914 9.84367C19.8467 9.68439 19.7482 9.54023 19.6242 9.4197C19.5012 9.28807 19.3515 9.1841 19.1852 9.11469C19.019 9.04527 18.8398 9.01199 18.6597 9.01705H17.0249V9.01766Z" fill="white"/>
<path d="M23.2554 10.3104C23.9759 10.3104 24.5447 10.503 24.9616 10.8881C25.3786 11.2731 25.5869 11.8011 25.5865 12.472V15.672H24.6541V14.9515H24.6117C24.208 15.5448 23.6711 15.8415 23.0011 15.8415C22.4291 15.8415 21.9506 15.672 21.5655 15.3329C21.3807 15.1773 21.2329 14.9824 21.133 14.7624C21.0331 14.5425 20.9835 14.303 20.9878 14.0614C20.9878 13.5241 21.1909 13.0969 21.597 12.7796C22.003 12.4623 22.5452 12.3033 23.2233 12.3025C23.8021 12.3025 24.2789 12.4084 24.6534 12.6203V12.3975C24.6545 12.2328 24.619 12.07 24.5493 11.9207C24.4797 11.7715 24.3777 11.6396 24.2508 11.5347C23.993 11.3021 23.6571 11.1752 23.3099 11.1793C22.7653 11.1793 22.3344 11.409 22.0172 11.8683L21.1586 11.3276C21.6309 10.6495 22.3298 10.3104 23.2554 10.3104ZM21.9942 14.0826C21.9935 14.2067 22.0225 14.3291 22.0787 14.4397C22.135 14.5503 22.2168 14.6458 22.3175 14.7183C22.5331 14.8879 22.8007 14.9778 23.0749 14.9727C23.4863 14.972 23.8806 14.8082 24.1715 14.5173C24.4944 14.2134 24.6559 13.8567 24.6559 13.4474C24.3519 13.2052 23.9281 13.0841 23.3844 13.0841C22.9884 13.0841 22.6582 13.1796 22.3938 13.3705C22.1268 13.5643 21.9942 13.7998 21.9942 14.0826V14.0826Z" fill="white"/>
<path d="M30.9389 10.4801L27.6838 17.9609H26.6775L27.8855 15.3433L25.7451 10.4801H26.8047L28.3517 14.2099H28.3729L29.8775 10.4801H30.9389Z" fill="white"/>
<path d="M13.0856 11.9367C13.086 11.6396 13.0609 11.3431 13.0106 11.0503H8.89932V12.7293H11.254C11.2059 12.9975 11.1039 13.2531 10.9542 13.4808C10.8046 13.7085 10.6104 13.9035 10.3834 14.0541V15.144H11.7887C12.6115 14.3853 13.0856 13.2633 13.0856 11.9367Z" fill="white"/>
<path d="M8.89935 16.1969C10.0758 16.1969 11.0664 15.8106 11.7887 15.1445L10.3834 14.0547C9.99225 14.3199 9.48849 14.4713 8.89935 14.4713C7.76225 14.4713 6.79711 13.7047 6.45198 12.6718H5.00427V13.7949C5.36712 14.517 5.9235 15.1239 6.61131 15.5481C7.29912 15.9722 8.09128 16.1968 8.89935 16.1969V16.1969Z" fill="white"/>
<path d="M6.45196 12.6719C6.2695 12.1306 6.2695 11.5445 6.45196 11.0032V9.88H5.00425C4.69901 10.4874 4.54004 11.1578 4.54004 11.8375C4.54004 12.5173 4.69901 13.1877 5.00425 13.7951L6.45196 12.6719Z" fill="white"/>
<path d="M8.89935 9.20358C9.52105 9.19342 10.1218 9.42832 10.5717 9.8575L11.816 8.61323C11.027 7.87216 9.98173 7.46531 8.89935 7.47795C8.09128 7.47798 7.29912 7.70261 6.61131 8.12676C5.9235 8.55091 5.36712 9.15788 5.00427 9.8799L6.45198 11.0031C6.79711 9.97012 7.76225 9.20358 8.89935 9.20358Z" fill="white"/>
</svg>
