<svg width="36" height="24" viewBox="0 0 36 24" fill="none" xmlns="http://www.w3.org/2000/svg">
<rect x="0.664871" y="0.90918" width="34.7354" height="22.2307" rx="2.08412" fill="black"/>
<path fill-rule="evenodd" clip-rule="evenodd" d="M29.4248 13.5413H29.9309V15.1509H29.9595L30.6175 14.3777L31.0843 14.3765L30.3624 15.2216L31.232 16.2785H30.6492L29.9382 15.2948H29.9309V16.2785H29.4248V13.5413V13.5413ZM5.36736 13.6637V15.1647C5.36736 15.676 5.51875 15.9555 5.94294 15.9555C6.34889 15.9555 6.51123 15.6166 6.51123 15.1943V13.6637H6.98953V15.2877C6.98953 15.948 6.55703 16.3221 5.92794 16.3221C5.20765 16.3221 4.83311 15.9741 4.83311 15.2615V13.6637H5.36736V13.6637ZM8.10747 14.6306C8.27873 14.4517 8.51706 14.3657 8.75622 14.3657C9.19966 14.3657 9.43436 14.6041 9.43436 15.0745V16.2769H8.93112V15.131C8.93112 14.8694 8.81377 14.6975 8.55172 14.6975C8.30527 14.6975 8.11172 14.8582 8.11172 15.1647V16.2769H7.60788V14.4101H8.10747V14.6306ZM10.0266 16.2769H10.5306V14.4101H10.0266V16.2769ZM9.97711 13.8503C9.97711 13.7087 10.0981 13.5628 10.2694 13.5628C10.4437 13.5628 10.5794 13.7048 10.5794 13.8503C10.5794 14.0107 10.4627 14.1639 10.2767 14.1639C10.0983 14.1639 9.97711 14.0107 9.97711 13.8503ZM11.6457 16.2769L10.8391 14.4022H11.3731C11.5365 14.8317 11.7059 15.2356 11.8648 15.7544H11.8725C12.0437 15.2356 12.2049 14.8317 12.379 14.4022H12.8518L11.9977 16.2769H11.6457ZM14.3516 15.1199C14.3712 14.8353 14.2687 14.6418 14.0192 14.6418C13.73 14.6418 13.6003 14.8694 13.6057 15.1199H14.3516V15.1199ZM13.5974 15.3886C13.5861 15.7398 13.8362 16.0007 14.1507 16.0007C14.3376 16.0007 14.5338 15.9372 14.6594 15.8511L14.8033 16.1128C14.5455 16.2619 14.276 16.3221 14.0601 16.3221C13.4876 16.3221 13.0595 15.9222 13.0595 15.3063C13.0595 14.7312 13.4835 14.3657 14.0259 14.3657C14.6173 14.3657 14.8639 14.8321 14.8266 15.3886H13.5974V15.3886ZM15.8159 14.7386H15.823L15.9255 14.5931C15.9818 14.5106 16.0957 14.3657 16.2512 14.3657C16.3649 14.3657 16.4867 14.4255 16.5929 14.5333L16.4028 14.8769C16.3195 14.8353 16.2662 14.8134 16.1645 14.8134C15.99 14.8134 15.8195 14.9517 15.8195 15.3546V16.2769H15.3138V14.4101H15.8159V14.7386V14.7386ZM17.9384 14.7609C17.8249 14.6789 17.7074 14.6418 17.6158 14.6418C17.5023 14.6418 17.3884 14.705 17.3884 14.8321C17.3884 14.9814 17.5708 15.0676 17.7828 15.22C18.0527 15.4188 18.1316 15.6128 18.1316 15.7836C18.1316 16.0459 17.8393 16.3221 17.423 16.3221C17.1612 16.3221 16.968 16.2321 16.7903 16.1091L16.9494 15.8511C17.0625 15.9413 17.2252 16.0303 17.3614 16.0303C17.5065 16.0303 17.6348 15.9555 17.6348 15.7988C17.6348 15.6233 17.4374 15.5264 17.256 15.3994C17.0398 15.254 16.8924 15.112 16.8924 14.8809C16.8924 14.5854 17.1798 14.3657 17.5511 14.3657C17.7605 14.3657 17.9646 14.4176 18.102 14.5376L17.9384 14.7609V14.7609ZM19.3746 15.2838C19.1285 15.3623 19.0035 15.5003 19.0035 15.7129C19.0035 15.8775 19.1097 15.9895 19.2319 15.9895C19.4319 15.9895 19.6938 15.7429 19.6563 15.1943L19.3746 15.2838V15.2838ZM19.5347 16.098C19.3979 16.21 19.2236 16.3221 19.0497 16.3221C18.7538 16.3221 18.5065 16.098 18.5065 15.7544C18.5065 15.3994 18.7688 15.2018 19.2088 15.0745L19.6563 14.9438C19.6299 14.7723 19.4739 14.6643 19.3117 14.6643C19.0949 14.6643 18.9431 14.7427 18.8105 14.8548L18.647 14.6195C18.8827 14.4292 19.1133 14.3657 19.3746 14.3657C19.7242 14.3657 20.1528 14.477 20.1528 15.0601V15.8213C20.1528 15.9709 20.1713 16.1468 20.2325 16.2769H19.698C19.6591 16.2133 19.6484 16.1055 19.6484 16.0045L19.5347 16.098V16.098ZM20.7177 16.2769H21.2223V13.533H20.7177V16.2769ZM25.6878 15.2838C25.4409 15.3623 25.3159 15.5003 25.3159 15.7129C25.3159 15.8775 25.4215 15.9895 25.5435 15.9895C25.7435 15.9895 26.0056 15.7429 25.9687 15.1943L25.6878 15.2838ZM25.8458 16.098C25.7101 16.21 25.5354 16.3221 25.3609 16.3221C25.0656 16.3221 24.8185 16.098 24.8185 15.7544C24.8185 15.3994 25.0804 15.2018 25.5208 15.0745L25.9687 14.9438C25.9409 14.7723 25.7863 14.6643 25.6221 14.6643C25.4067 14.6643 25.2547 14.7427 25.1221 14.8548L24.959 14.6195C25.1941 14.4292 25.4257 14.3657 25.6878 14.3657C26.0357 14.3657 26.4638 14.477 26.4638 15.0601V15.8213C26.4638 15.9709 26.4826 16.1468 26.543 16.2769H26.0094C25.9719 16.2133 25.9593 16.1055 25.9593 16.0045L25.8458 16.098V16.098ZM27.5294 14.6306C27.7003 14.4517 27.9394 14.3657 28.178 14.3657C28.6214 14.3657 28.8563 14.6041 28.8563 15.0745V16.2769H28.3523V15.131C28.3523 14.8694 28.2347 14.6975 27.9731 14.6975C27.7264 14.6975 27.5333 14.8582 27.5333 15.1647V16.2769H27.0292V14.4101H27.5294V14.6306ZM23.0615 15.9626H23.3343C23.6302 15.9626 23.8546 15.8098 23.8546 15.5189C23.8546 15.2125 23.6232 15.082 23.3313 15.082H23.0615V15.9626V15.9626ZM23.0615 14.7609H23.2292C23.5366 14.7609 23.7454 14.567 23.7454 14.3238C23.7454 14.0927 23.5701 13.9922 23.339 13.9922H23.0613V14.7609H23.0615ZM22.5275 16.284V13.6708H23.487C23.9338 13.6708 24.249 13.8722 24.249 14.2269C24.249 14.6448 23.9041 14.8171 23.7184 14.8653V14.8728C24.0484 14.888 24.4156 15.1116 24.4156 15.511C24.4156 15.9626 24.0323 16.284 23.4077 16.284H22.5275Z" fill="white"/>
<path fill-rule="evenodd" clip-rule="evenodd" d="M31.232 12.1799L31.232 12.3826L4.83312 12.3826L4.83312 12.1799L31.232 12.1799Z" fill="white"/>
<path fill-rule="evenodd" clip-rule="evenodd" d="M9.99467 10.971V9.27347C9.99467 8.79192 9.73687 8.56331 9.30397 8.56331C8.94402 8.56331 8.63272 8.77733 8.49653 8.99135C8.40897 8.72383 8.19009 8.56331 7.84474 8.56331C7.48479 8.56331 7.17349 8.78706 7.07621 8.92812V8.62168H6.45847V10.971H7.07621V9.39021C7.16862 9.25888 7.3486 9.11295 7.56262 9.11295C7.81555 9.11295 7.91283 9.26861 7.91283 9.48749V10.971H8.53544V9.38534C8.62299 9.25888 8.80296 9.11295 9.02185 9.11295C9.27478 9.11295 9.37206 9.26861 9.37206 9.48749V10.971H9.99467ZM11.6922 11.0294C10.9189 11.0294 10.4519 10.4652 10.4519 9.79393C10.4519 9.12755 10.9189 8.56331 11.6922 8.56331C12.4705 8.56331 12.9375 9.12755 12.9375 9.79393C12.9375 10.4652 12.4705 11.0294 11.6922 11.0294ZM11.6922 10.4798C12.0765 10.4798 12.2954 10.1636 12.2954 9.79393C12.2954 9.42912 12.0765 9.11295 11.6922 9.11295C11.308 9.11295 11.094 9.42912 11.094 9.79393C11.094 10.1636 11.308 10.4798 11.6922 10.4798ZM15.5981 10.971V9.31238C15.5981 8.85516 15.35 8.56331 14.8345 8.56331C14.4502 8.56331 14.1632 8.74815 14.0124 8.92812V8.62168H13.3947V10.971H14.0124V9.39021C14.1146 9.24915 14.3043 9.11295 14.5475 9.11295C14.8101 9.11295 14.9804 9.22483 14.9804 9.55072V10.971H15.5981V10.971ZM17.3006 11.0294C16.5272 11.0294 16.0602 10.4652 16.0602 9.79393C16.0602 9.12755 16.5272 8.56331 17.3006 8.56331C18.0788 8.56331 18.5458 9.12755 18.5458 9.79393C18.5458 10.4652 18.0788 11.0294 17.3006 11.0294ZM17.3006 10.4798C17.6848 10.4798 17.9037 10.1636 17.9037 9.79393C17.9037 9.42912 17.6848 9.11295 17.3006 9.11295C16.9163 9.11295 16.7023 9.42912 16.7023 9.79393C16.7023 10.1636 16.9163 10.4798 17.3006 10.4798ZM19.6207 10.2171C19.7229 10.3679 19.9515 10.4798 20.1509 10.4798C20.5109 10.4798 20.7492 10.2074 20.7492 9.79879C20.7492 9.39021 20.5109 9.11295 20.1509 9.11295C19.9515 9.11295 19.7229 9.22969 19.6207 9.38534V10.2171ZM19.6207 10.971H19.003V7.72668H19.6207V8.92325C19.8056 8.68491 20.0682 8.56331 20.3455 8.56331C20.9438 8.56331 21.3864 9.03026 21.3864 9.79879C21.3864 10.5819 20.9389 11.0294 20.3455 11.0294C20.0634 11.0294 19.8056 10.9029 19.6207 10.6695V10.971ZM23.8817 10.971H23.2639V10.7278C23.1034 10.9175 22.8262 11.0294 22.5197 11.0294C22.1452 11.0294 21.7026 10.7765 21.7026 10.2512C21.7026 9.70151 22.1452 9.49235 22.5197 9.49235C22.831 9.49235 23.1083 9.5945 23.2639 9.77934V9.46317C23.2639 9.22483 23.0597 9.06918 22.7484 9.06918C22.4954 9.06918 22.2619 9.1616 22.0625 9.34643L21.829 8.93298C22.116 8.68005 22.4857 8.56331 22.8554 8.56331C23.3904 8.56331 23.8817 8.77733 23.8817 9.45344V10.971ZM22.7678 10.6111C22.9672 10.6111 23.1618 10.543 23.2639 10.4068V10.115C23.1618 9.97877 22.9672 9.91067 22.7678 9.91067C22.5246 9.91067 22.3252 10.0371 22.3252 10.2657C22.3252 10.4846 22.5246 10.6111 22.7678 10.6111V10.6111ZM26.698 10.971V9.31238C26.698 8.85516 26.4499 8.56331 25.9343 8.56331C25.5501 8.56331 25.2631 8.74815 25.1123 8.92812V8.62168H24.4946V10.971H25.1123V9.39021C25.2145 9.24915 25.4042 9.11295 25.6474 9.11295C25.91 9.11295 26.0803 9.22483 26.0803 9.55072V10.971H26.698ZM29.6067 10.971L28.6485 9.68692L29.5776 8.62168H28.8188L27.9286 9.66746V7.72668H27.3109V10.971H27.9286V10.3679L28.2107 10.0663L28.8333 10.971H29.6067Z" fill="white"/>
</svg>
