<svg width="36" height="24" viewBox="0 0 36 24" fill="none" xmlns="http://www.w3.org/2000/svg">
<rect x="0.544098" y="0.90918" width="34.7354" height="22.2307" rx="2.08412" fill="black"/>
<path d="M6.63614 12.2159C6.76259 12.2422 6.87614 12.2551 7.04285 12.2551C7.69574 12.2551 8.13565 11.8413 8.13565 11.3159C8.13565 10.8432 7.79587 10.6727 7.35632 10.6727C7.16259 10.6727 7.01601 10.6859 6.92276 10.7118L6.63614 12.2159ZM6.26952 10.1669C6.5429 10.101 6.94961 10.0618 7.34943 10.0618C7.76956 10.0618 8.20947 10.1469 8.50263 10.3771C8.76258 10.574 8.91587 10.8625 8.91587 11.2571C8.91587 11.7822 8.66245 12.2095 8.34245 12.4588C7.98272 12.7412 7.46899 12.8791 6.93583 12.8791C6.77565 12.8791 6.63614 12.8591 6.51605 12.8462L6.18934 14.521H5.42979L6.26952 10.1669Z" fill="white"/>
<path d="M10.9751 11.8739C10.8953 11.8539 10.7955 11.8412 10.6555 11.8412C9.94219 11.8412 9.38219 12.6361 9.38219 13.3651C9.38219 13.6995 9.50881 13.9756 9.84894 13.9756C10.2152 13.9756 10.6555 13.5293 10.8088 12.7148L10.9751 11.8739ZM10.662 14.5209C10.662 14.33 10.6885 14.0743 10.7155 13.8046H10.7021C10.3823 14.3895 9.94872 14.5929 9.53548 14.5929C8.9557 14.5929 8.5753 14.1463 8.5753 13.5029C8.5753 12.4127 9.34863 11.2502 10.8619 11.2502C11.2151 11.2502 11.5952 11.3158 11.8486 11.3946L11.5086 13.0627C11.415 13.5354 11.3619 14.1398 11.3753 14.5209H10.662Z" fill="white"/>
<path d="M16.2603 13.2534C16.2603 13.6929 16.4936 14.0024 16.8936 14.0024C17.4735 14.0024 17.8603 13.2139 17.8603 12.577C17.8603 12.2483 17.7066 11.8412 17.2404 11.8412C16.6204 11.8412 16.2603 12.6558 16.2603 13.2534ZM18.6601 12.5707C18.6601 13.6605 17.8933 14.5929 16.7871 14.5929C15.9668 14.5929 15.4606 14.0348 15.4606 13.2727C15.4606 12.1895 16.2271 11.2503 17.3337 11.2503C18.2068 11.2503 18.6601 11.8676 18.6601 12.5707" fill="white"/>
<path d="M18.806 14.521L19.2261 12.3142C19.3059 11.9332 19.3525 11.5983 19.3926 11.3227H20.0863L20.0129 11.894H20.0259C20.3256 11.4669 20.7392 11.2503 21.1925 11.2503C21.6589 11.2503 22.019 11.5264 22.019 12.1305C22.019 12.2747 21.9929 12.4979 21.9593 12.6557L21.6054 14.521H20.8256L21.1719 12.7149C21.1925 12.5968 21.2123 12.4588 21.2123 12.3339C21.2123 12.0645 21.1124 11.874 20.8058 11.874C20.4526 11.874 19.9991 12.2942 19.8592 13.0434L19.5793 14.521H18.806Z" fill="white"/>
<path d="M24.0848 11.8215C23.5979 11.8215 23.2783 12.2483 23.185 12.6361C23.9847 12.6426 24.4984 12.5375 24.4984 12.1502C24.4984 11.9466 24.3317 11.8215 24.0848 11.8215ZM24.8248 14.3368C24.5046 14.5009 24.0718 14.5929 23.6781 14.5929C22.779 14.5929 22.3455 14.0482 22.3455 13.2665C22.3455 12.301 23.065 11.2503 24.185 11.2503C24.8248 11.2503 25.2315 11.6114 25.2315 12.1502C25.2315 12.9709 24.3586 13.2334 23.1054 13.2073C23.0918 13.3188 23.1185 13.5354 23.1919 13.6604C23.3187 13.8773 23.5513 13.9888 23.8584 13.9888C24.2254 13.9888 24.5182 13.8968 24.7522 13.7787L24.8248 14.3368Z" fill="white"/>
<path d="M27.1038 11.8215C26.6175 11.8215 26.2973 12.2483 26.204 12.6361C27.0037 12.6426 27.5174 12.5375 27.5174 12.1502C27.5174 11.9466 27.3507 11.8215 27.1038 11.8215ZM27.8438 14.3368C27.5241 14.5009 27.0908 14.5929 26.6978 14.5929C25.798 14.5929 25.3645 14.0482 25.3645 13.2665C25.3645 12.301 26.084 11.2503 27.204 11.2503C27.8438 11.2503 28.2512 11.6114 28.2512 12.1502C28.2512 12.9709 27.3776 13.2334 26.1244 13.2073C26.1106 13.3188 26.1375 13.5354 26.2109 13.6604C26.3377 13.8773 26.5708 13.9888 26.8774 13.9888C27.2444 13.9888 27.5372 13.8968 27.7712 13.7787L27.8438 14.3368Z" fill="white"/>
<path d="M28.2971 14.521L28.677 12.5506C28.7636 12.0976 28.8102 11.6051 28.843 11.3227H29.5166C29.4966 11.5393 29.4768 11.7625 29.4433 11.9927H29.4631C29.684 11.5656 30.0365 11.2503 30.4767 11.2503C30.5371 11.2503 30.5968 11.2571 30.6503 11.2571L30.4967 12.0057C30.4568 11.9989 30.4035 11.9989 30.35 11.9989C29.7963 11.9989 29.4433 12.5506 29.317 13.2335L29.0701 14.521H28.2971Z" fill="white"/>
<path d="M31.2402 11.6153H31.297C31.3553 11.6153 31.3938 11.5832 31.3938 11.5349C31.3938 11.4804 31.3534 11.4566 31.2951 11.4566C31.2682 11.4566 31.2492 11.4585 31.2402 11.4606V11.6153ZM31.1845 11.4223C31.2128 11.4173 31.2532 11.4136 31.2908 11.4136C31.3498 11.4136 31.389 11.4254 31.415 11.4484C31.4364 11.467 31.4487 11.4961 31.4487 11.5295C31.4487 11.5845 31.4136 11.6217 31.3684 11.6365V11.6386C31.4012 11.6497 31.4205 11.6801 31.4314 11.724C31.4452 11.7824 31.4554 11.8237 31.4644 11.8402H31.4069C31.4 11.8273 31.3903 11.7917 31.3793 11.739C31.3663 11.6805 31.3424 11.6589 31.2923 11.6568H31.2402V11.8402H31.1845V11.4223Z" fill="white"/>
<path d="M31.3122 11.2501C31.1003 11.2501 30.9281 11.4197 30.9281 11.6285C30.9281 11.8373 31.1003 12.0071 31.3122 12.0071C31.5241 12.0071 31.6963 11.8373 31.6963 11.6285C31.6963 11.4197 31.5241 11.2501 31.3122 11.2501ZM31.3122 11.3085C31.4913 11.3085 31.6366 11.4514 31.6366 11.6285C31.6366 11.8054 31.4913 11.9488 31.3122 11.9488C31.1326 11.9488 30.9871 11.8054 30.9871 11.6285C30.9871 11.4514 31.1326 11.3085 31.3122 11.3085" fill="white"/>
<path d="M12.1129 8.24317C12.1452 8.96485 12.7781 11.7188 12.7781 11.7188C13.0107 12.2766 13.211 11.7188 13.211 11.7188C13.9767 9.45635 12.4119 8.14522 12.4119 8.14522C12.0124 7.91521 12.1129 8.24317 12.1129 8.24317ZM21.1988 7.84997C21.1988 7.84997 21.9649 8.37453 21.1988 8.47283C21.1988 8.47283 18.3363 8.80061 16.2063 10.7685C16.2063 10.7685 13.0107 13.522 11.8128 16.5388C11.8128 16.5388 11.4134 16.5388 11.547 15.9488C11.68 15.3587 12.4784 12.7681 16.0394 9.58805C16.0394 9.58805 19.4686 6.50561 21.1988 7.84997" fill="#FF4600"/>
</svg>
