<svg width="35" height="24" viewBox="0 0 35 24" fill="none" xmlns="http://www.w3.org/2000/svg">
<rect x="0.251022" y="0.90918" width="34.7354" height="22.2307" rx="2.08412" fill="#0D0D0D"/>
<path d="M3.42062 10.5672H4.12573L4.29395 11.819H4.2993L4.48448 10.5672H5.29974L5.48427 11.819H5.48962L5.65823 10.5672H6.36333L5.93398 12.5568H5.07932L4.89505 11.2679H4.8897L4.70503 12.5568H3.85063L3.42062 10.5672Z" fill="#FDDF12"/>
<path d="M6.8235 10.5672H8.33681V11.086H7.57872V11.2975H8.27887V11.8159H7.57872V12.0391H8.36148V12.5568H6.8235V10.5672Z" fill="#FDDF12"/>
<path d="M9.95156 11.1325C9.94856 11.0085 9.87978 10.967 9.77773 10.967C9.65127 10.967 9.59568 11.0221 9.59568 11.0831C9.59568 11.1541 9.64253 11.1847 9.72513 11.2096C9.87678 11.2541 10.155 11.3086 10.356 11.3944C10.6073 11.4988 10.7172 11.6784 10.7172 11.9177C10.7172 12.4055 10.3206 12.6096 9.75789 12.6096C9.27855 12.6096 8.83784 12.4608 8.83784 11.9426H9.59307C9.59307 11.9982 9.60429 12.053 9.63443 12.0947C9.66458 12.1326 9.7143 12.1574 9.78856 12.1574C9.90418 12.1574 9.97909 12.083 9.97909 11.9951C9.97909 11.921 9.92115 11.8825 9.84637 11.8601L9.28691 11.6951C8.9814 11.604 8.87412 11.4189 8.87412 11.163C8.87412 10.7494 9.20756 10.5152 9.78856 10.5152C10.2845 10.5152 10.6571 10.67 10.6571 11.1325H9.95156Z" fill="#FDDF12"/>
<path d="M11.6347 11.1027H11.1445V10.5674H12.9133V11.1027H12.4228V12.5568H11.6347V11.1027Z" fill="#FDDF12"/>
<path d="M13.4256 10.5672H14.9386V11.086H14.1812V11.2975H14.881V11.8159H14.1812V12.0391H14.9638V12.5568H13.4256V10.5672Z" fill="#FDDF12"/>
<path d="M15.5258 10.5672H16.7026C17.1297 10.5672 17.3806 10.6972 17.3806 11.0723C17.3806 11.3009 17.2839 11.4738 16.9858 11.546V11.5514C17.1791 11.5681 17.2839 11.653 17.3222 11.8052C17.3662 11.9758 17.3612 12.2567 17.4518 12.5568H16.6805C16.6339 12.4081 16.609 12.1574 16.5811 11.987C16.5652 11.8873 16.5152 11.8494 16.3885 11.8494H16.2973V12.5568H15.5258V10.5672ZM16.3634 11.3969C16.5152 11.3969 16.6253 11.3445 16.6253 11.1961C16.6253 11.0501 16.5232 11.0196 16.3685 11.0196H16.2973V11.3969H16.3634Z" fill="#FDDF12"/>
<path d="M17.9789 10.5672H18.9236L19.3446 11.7719H19.3506V10.5672H19.9901V12.5568H19.0454L18.6233 11.3445H18.6177V12.5568H17.9789V10.5672Z" fill="#FDDF12"/>
<path d="M10.7006 14.2726C10.7006 14.7524 10.356 14.9924 9.7556 14.9924C9.15476 14.9924 8.81062 14.7524 8.81062 14.2726V12.9505H9.59847V14.2397C9.59847 14.3967 9.67299 14.4582 9.7556 14.4582C9.8382 14.4582 9.91272 14.3967 9.91272 14.2397V12.9505H10.7006V14.2726Z" fill="#FDDF12"/>
<path d="M11.3321 12.9504H12.2772L12.6985 14.1548H12.7041V12.9504H13.3431V14.9403H12.3982L11.977 13.7273H11.9708V14.9403H11.3321V12.9504Z" fill="#FDDF12"/>
<path d="M13.9887 12.9504H14.7759V14.9403H13.9887V12.9504Z" fill="#FDDF12"/>
<path d="M16.3769 12.8981C17.0632 12.8981 17.405 13.325 17.405 13.9451C17.405 14.565 17.0632 14.9924 16.3769 14.9924C15.691 14.9924 15.3496 14.565 15.3496 13.9451C15.3496 13.325 15.691 12.8981 16.3769 12.8981ZM16.3769 14.4743C16.4989 14.4743 16.589 14.4052 16.589 13.9451C16.589 13.4958 16.5041 13.416 16.3769 13.416C16.2506 13.416 16.165 13.4958 16.165 13.9451C16.165 14.4052 16.2566 14.4743 16.3769 14.4743Z" fill="#FDDF12"/>
<path d="M17.9789 12.9504H18.9236L19.3446 14.1548H19.3506V12.9504H19.9901V14.9403H19.0454L18.6233 13.7273H18.6177V14.9403H17.9789V12.9504Z" fill="#FDDF12"/>
<path d="M27.4083 10.5392H27.0725L26.6965 13.3318H26.6844L26.2727 10.5392H24.4535L24.0407 13.3318H24.0288L23.6539 10.5392H22.0808L23.0397 14.9771H24.946L25.3573 12.1021H25.3698L25.7811 14.9771H27.6873L27.7828 14.5332C27.5391 14.2743 27.4083 13.9273 27.4083 13.4892V10.5392Z" fill="#FDDF12"/>
<path d="M27.4083 10.5392V13.4892C27.4083 13.9273 27.5391 14.2743 27.7828 14.5332L28.6452 10.5392H27.4083Z" fill="white"/>
<path d="M29.8667 10.5391V13.4158C29.8667 13.7659 29.7006 13.9023 29.5163 13.9023C29.332 13.9023 29.1659 13.7659 29.1659 13.4158V10.5391H28.7908L27.905 14.6436C28.2644 14.9426 28.8086 15.0948 29.5163 15.0948C30.856 15.0948 31.6246 14.5593 31.6246 13.4891V10.5391H29.8667Z" fill="#FDDF12"/>
<path d="M20.9275 10.5392H20.6657L21.6078 14.9771H21.8698L20.9275 10.5392Z" fill="#FDDF12"/>
<path d="M22.3237 14.9771H22.5857L21.6434 10.5392H21.3818L22.3237 14.9771Z" fill="#FDDF12"/>
<path d="M32.1552 10.7513C32.1528 10.7215 32.1368 10.7068 32.1064 10.7068C32.083 10.7068 32.0594 10.7191 32.0594 10.7448C32.0594 10.7765 32.088 10.7803 32.1131 10.7863C32.158 10.7978 32.2239 10.8104 32.2239 10.8693C32.2239 10.9422 32.1604 10.9674 32.0972 10.9674C32.0301 10.9674 31.9825 10.9414 31.9845 10.8673H32.0488C32.0465 10.8998 32.0652 10.9219 32.0981 10.9219C32.1233 10.9219 32.1569 10.9142 32.1569 10.8828C32.1569 10.8481 32.1148 10.8456 32.0895 10.8393C32.0485 10.8291 31.9922 10.8104 31.9922 10.7582C31.9922 10.6911 32.0542 10.6612 32.1144 10.6612C32.1715 10.6612 32.2158 10.6922 32.2158 10.7513H32.1552Z" fill="#FDDF12"/>
<path d="M32.4564 10.9613H32.4038L32.3261 10.709L32.3252 10.7098V10.9613H32.2661V10.6674H32.3696L32.4311 10.8812H32.4319L32.4987 10.6674H32.5984V10.9613H32.5394V10.7098L32.5387 10.709L32.4564 10.9613Z" fill="#FDDF12"/>
</svg>
