<svg width="23" height="23" viewBox="0 0 23 23" fill="none" xmlns="http://www.w3.org/2000/svg">
<g clip-path="url(#clip0_31_5017)">
<path d="M3.31366 7.67688C2.93063 7.67688 2.60564 7.81045 2.33849 8.0776C2.07134 8.34475 1.93773 8.66531 1.93773 9.03946V14.7841C1.93773 15.1676 2.0713 15.4923 2.33849 15.7595C2.60564 16.0267 2.93063 16.1603 3.31366 16.1603C3.69641 16.1603 4.01943 16.0267 4.28244 15.7595C4.54492 15.4924 4.67653 15.1676 4.67653 14.7841V9.03946C4.67653 8.66527 4.54295 8.34475 4.27577 8.0776C4.00858 7.81045 3.68781 7.67688 3.31366 7.67688Z" fill="#1F2937"/>
<path d="M14.3755 2.51982L15.324 0.769981C15.3863 0.654135 15.3641 0.5653 15.2574 0.502835C15.1415 0.448971 15.0525 0.476265 14.9902 0.582786L14.0284 2.34661C13.1821 1.97242 12.2869 1.78499 11.343 1.78499C10.3989 1.78499 9.50364 1.97246 8.65762 2.34661L7.69576 0.582786C7.63325 0.476265 7.54421 0.449212 7.42861 0.502835C7.32161 0.565582 7.29946 0.654135 7.36196 0.769981L8.31056 2.51982C7.3487 3.01034 6.58263 3.69348 6.01264 4.57073C5.44265 5.44846 5.15754 6.40764 5.15754 7.44993H17.515C17.515 6.40788 17.2299 5.44867 16.6599 4.57073C16.0899 3.69348 15.3283 3.01034 14.3755 2.51982ZM8.89132 5.06499C8.78874 5.16781 8.66622 5.21898 8.52381 5.21898C8.38111 5.21898 8.26108 5.16781 8.16316 5.06499C8.06524 4.96265 8.01628 4.84061 8.01628 4.69771C8.01628 4.5553 8.06524 4.43302 8.16316 4.33044C8.26108 4.2281 8.38139 4.17693 8.52381 4.17693C8.66622 4.17693 8.78874 4.2281 8.89132 4.33044C8.99366 4.43326 9.04508 4.5553 9.04508 4.69771C9.04479 4.84037 8.99342 4.96265 8.89132 5.06499ZM14.5223 5.06499C14.4242 5.16781 14.3039 5.21898 14.1617 5.21898C14.019 5.21898 13.8965 5.16781 13.7941 5.06499C13.6916 4.96265 13.6404 4.84061 13.6404 4.69771C13.6404 4.5553 13.6916 4.43302 13.7941 4.33044C13.8965 4.2281 14.019 4.17693 14.1617 4.17693C14.3041 4.17693 14.4241 4.2281 14.5223 4.33044C14.6203 4.43326 14.6692 4.5553 14.6692 4.69771C14.6692 4.84037 14.6203 4.96265 14.5223 5.06499Z" fill="#1F2937"/>
<path d="M5.21114 16.8282C5.21114 17.2383 5.35355 17.5855 5.63843 17.8703C5.92354 18.1552 6.27068 18.2976 6.68048 18.2976H7.66916L7.6827 21.3306C7.6827 21.7136 7.81628 22.0389 8.08343 22.306C8.35057 22.5732 8.67138 22.7068 9.04529 22.7068C9.42808 22.7068 9.75327 22.5732 10.0205 22.306C10.2876 22.0389 10.4212 21.7137 10.4212 21.3306V18.2979H12.2648V21.3306C12.2648 21.7136 12.3983 22.0389 12.6655 22.306C12.9327 22.5732 13.2576 22.7068 13.6407 22.7068C14.0235 22.7068 14.3487 22.5732 14.6159 22.306C14.883 22.0389 15.0166 21.7137 15.0166 21.3306V18.2979H16.0186C16.4193 18.2979 16.762 18.1555 17.0474 17.8706C17.3322 17.5857 17.4747 17.2386 17.4747 16.8285V7.93054H5.21114V16.8282Z" fill="#1F2937"/>
<path d="M19.3723 7.67688C18.9981 7.67688 18.6776 7.80848 18.4104 8.07097C18.1432 8.33393 18.0096 8.65695 18.0096 9.03946V14.7841C18.0096 15.1676 18.1432 15.4923 18.4104 15.7595C18.6776 16.0267 18.9983 16.1603 19.3723 16.1603C19.7551 16.1603 20.0803 16.0267 20.3474 15.7595C20.6146 15.4923 20.7482 15.1676 20.7482 14.7841V9.03946C20.7482 8.65691 20.6146 8.33393 20.3474 8.07097C20.0803 7.80848 19.7551 7.67688 19.3723 7.67688Z" fill="#1F2937"/>
</g>
<defs>
<clipPath id="clip0_31_5017">
<rect width="22.2307" height="22.2307" fill="white" transform="translate(0.226624 0.474976)"/>
</clipPath>
</defs>
</svg>
