<svg width="19" height="23" viewBox="0 0 19 23" fill="none" xmlns="http://www.w3.org/2000/svg">
<path d="M15.7789 12.9366C15.1674 9.85901 18.0885 8.05405 18.0885 8.05405C18.0885 8.05405 16.9504 6.40746 15.0377 5.98386C13.1259 5.55933 12.169 6.08974 11.214 6.48755C10.2581 6.88634 9.78116 6.88634 9.78116 6.88634C8.40169 6.88634 7.39329 5.42577 4.76505 6.09071C2.95438 6.54766 1.04827 8.63788 0.703885 11.1326C0.359494 13.6282 1.10267 16.8127 2.53556 19.2807C3.96845 21.7506 5.42809 22.6788 6.46409 22.7055C7.50014 22.7313 8.53428 21.9633 9.78116 21.7763C11.029 21.5912 11.7969 22.2285 13.0209 22.5729C14.2401 22.9164 14.6675 22.5977 16.0718 21.4033C17.4798 20.2089 18.7544 16.7831 18.7544 16.7831C18.7544 16.7831 16.3904 16.0161 15.7789 12.9366Z" fill="#1F2937"/>
<path d="M13.0716 3.99331C14.4262 2.61292 13.9674 0.475952 13.9674 0.475952C13.9674 0.475952 12.0651 0.809861 10.7905 2.1359C9.51696 3.46291 9.72779 5.55884 9.72779 5.55884C9.72779 5.55884 11.7169 5.37282 13.0716 3.99331Z" fill="#1F2937"/>
</svg>
