<svg width="23" height="23" viewBox="0 0 23 23" fill="none" xmlns="http://www.w3.org/2000/svg">
<path fill-rule="evenodd" clip-rule="evenodd" d="M11.5731 0.811646C13.577 0.834513 15.3874 1.32702 17.0042 2.28917C18.6017 3.23211 19.9305 4.56913 20.8637 6.17236C21.82 7.79888 22.3096 9.62022 22.3324 11.6364C22.2756 14.3949 21.4055 16.751 19.7221 18.7046C18.0388 20.6582 15.8828 21.8668 13.6509 22.3302V14.596H15.761L16.2382 11.5567H13.0431V9.56597C13.0253 9.15328 13.1558 8.74787 13.411 8.42303C13.6665 8.09731 14.1165 7.92611 14.7609 7.90944H16.6903V5.24704C16.6626 5.23813 16.3999 5.20291 15.9022 5.14138C15.3378 5.07534 14.7702 5.04006 14.2019 5.03571C12.9158 5.04164 11.8986 5.40445 11.1504 6.12412C10.4022 6.84359 10.0199 7.8845 10.0037 9.24687V11.5567H7.57226V14.596H10.0037V22.3302C7.26333 21.8668 5.10735 20.6582 3.42398 18.7046C1.74062 16.751 0.870583 14.3949 0.813782 11.6364C0.836507 9.62012 1.32604 7.79879 2.28238 6.17236C3.21558 4.56913 4.54447 3.23212 6.14199 2.28917C7.75873 1.32721 9.56908 0.834698 11.5731 0.811646Z" fill="#1F2937"/>
</svg>
