<svg width="23" height="22" viewBox="0 0 23 22" fill="none" xmlns="http://www.w3.org/2000/svg">
<path fill-rule="evenodd" clip-rule="evenodd" d="M11.3 8.16025C12.8031 8.16025 14.0217 9.35996 14.0217 10.8399C14.0217 12.3195 12.8031 13.5192 11.3 13.5192C9.7968 13.5192 8.57825 12.3195 8.57825 10.8399C8.57825 9.35996 9.79681 8.16025 11.3 8.16025ZM11.3 7.08876C9.19554 7.08876 7.48956 8.76812 7.48956 10.8399C7.48956 12.9113 9.19554 14.591 11.3 14.591C13.4044 14.591 15.1104 12.9113 15.1104 10.8399C15.1104 8.76812 13.4044 7.08876 11.3 7.08876ZM15.228 6.18704C15.0168 6.19035 14.8112 6.25602 14.6371 6.3758C14.4631 6.49559 14.3283 6.66414 14.2497 6.86028C14.1712 7.05643 14.1523 7.27141 14.1956 7.47823C14.2388 7.68505 14.3422 7.87447 14.4928 8.0227C14.6434 8.17093 14.8344 8.27136 15.0419 8.31136C15.2493 8.35136 15.464 8.32916 15.6589 8.24754C15.8538 8.16592 16.0202 8.02852 16.1372 7.85261C16.2543 7.6767 16.3167 7.47012 16.3167 7.25883C16.3145 6.97234 16.1985 6.69848 15.9943 6.49749C15.7902 6.2965 15.5145 6.18483 15.228 6.18704ZM8.64021 5.02057H13.9597C15.6903 5.02057 17.0932 6.40164 17.0932 8.10504V13.5744C17.0932 15.2781 15.6903 16.6589 13.9597 16.6589H8.64021C6.90968 16.6589 5.50678 15.2781 5.50678 13.5744V8.10504C5.50678 6.40164 6.90965 5.02057 8.64021 5.02057ZM8.13851 3.95383C6.08154 3.95383 4.41401 5.59551 4.41401 7.62035V14.0591C4.41401 16.0842 6.08151 17.7256 8.13851 17.7256H14.4614C16.5184 17.7256 18.1859 16.0842 18.1859 14.0591V7.62035C18.1859 5.5955 16.5184 3.95383 14.4614 3.95383H8.13851ZM11.3 0.0804443C17.2422 0.0804443 22.0593 4.89738 22.0593 10.8399C22.0593 16.782 17.2422 21.599 11.3 21.599C5.35776 21.599 0.54068 16.782 0.54068 10.8399C0.54068 4.8974 5.35776 0.0804443 11.3 0.0804443Z" fill="#1F2937"/>
</svg>
