<svg width="22" height="23" viewBox="0 0 22 23" fill="none" xmlns="http://www.w3.org/2000/svg">
<path fill-rule="evenodd" clip-rule="evenodd" d="M10.9278 0.825317C4.99126 0.825317 0.168488 5.6482 0.168488 11.5847C0.168488 17.5212 4.99127 22.3438 10.9278 22.3438C16.8643 22.3438 21.6871 17.5213 21.6871 11.5847C21.6871 5.64819 16.8643 0.825317 10.9278 0.825317ZM17.3686 15.0625C17.2951 15.2411 16.9483 15.4931 15.7295 15.6825C15.6245 15.7033 15.593 15.8294 15.5299 16.1028C15.5103 16.202 15.4858 16.3002 15.4564 16.3969C15.4248 16.4913 15.3723 16.5335 15.2778 16.5335H15.2672C15.1747 16.5313 15.0829 16.5171 14.994 16.4913C14.7513 16.4471 14.5053 16.4225 14.2585 16.418C14.0825 16.4167 13.9067 16.4307 13.7332 16.4599C13.3654 16.5231 13.0607 16.7436 12.7245 16.9748C12.2517 17.3111 11.7578 17.6578 10.9908 17.6578H10.8227C10.0557 17.6578 9.56185 17.3111 9.08904 16.9748C8.76332 16.7436 8.44811 16.5231 8.08036 16.4599C7.90678 16.4307 7.73099 16.4167 7.55499 16.418C7.30769 16.4223 7.06138 16.4504 6.81948 16.502C6.72981 16.5239 6.63839 16.5379 6.54627 16.5438C6.50344 16.5486 6.46038 16.5372 6.42545 16.512C6.39051 16.4867 6.36618 16.4495 6.35716 16.4073C6.32563 16.3022 6.30463 16.1972 6.28359 16.1028C6.23105 15.8505 6.18906 15.7033 6.08399 15.6825C4.86513 15.4931 4.51842 15.2411 4.44484 15.0625C4.43296 15.0359 4.42585 15.0075 4.42385 14.9785C4.42313 14.9455 4.43449 14.9135 4.45578 14.8883C4.47706 14.8632 4.50681 14.8467 4.53942 14.8419C6.4097 14.5267 7.25027 12.6144 7.28178 12.5304H7.29232C7.40788 12.2992 7.42888 12.089 7.35535 11.9314C7.22924 11.6266 6.80895 11.49 6.53578 11.406C6.47172 11.3881 6.40861 11.367 6.34667 11.3428C5.78978 11.1223 5.74774 10.9017 5.76876 10.786C5.81076 10.5865 6.06294 10.4497 6.28358 10.4497C6.33439 10.449 6.3847 10.4599 6.43069 10.4815C6.68287 10.5969 6.90353 10.6598 7.09265 10.6598C7.36583 10.6598 7.4814 10.5444 7.4919 10.534C7.4919 10.4079 7.4814 10.2713 7.4709 10.1345C7.41837 9.25207 7.34483 8.14882 7.62852 7.51839C8.46908 5.6375 10.2448 5.49058 10.7702 5.49058H11.0328C11.5582 5.49058 13.3444 5.6375 14.185 7.51839C14.4687 8.14884 14.3951 9.25207 14.3426 10.1345V10.1766C14.3321 10.2921 14.3216 10.4182 14.3216 10.534C14.3321 10.5444 14.4372 10.6495 14.6788 10.6598C14.868 10.6495 15.0781 10.5865 15.3092 10.4815C15.3723 10.4543 15.4402 10.44 15.5089 10.4393C15.5854 10.4405 15.6607 10.4585 15.7295 10.4918H15.74C15.9187 10.5548 16.0447 10.6916 16.0447 10.8281C16.0552 10.9543 15.9502 11.1537 15.4668 11.3428C15.4143 11.3639 15.3512 11.385 15.2882 11.406C15.0045 11.49 14.5842 11.6266 14.4581 11.9314C14.3846 12.089 14.4056 12.2992 14.5212 12.5304H14.5317C14.5632 12.6144 15.4038 14.5267 17.2741 14.8419C17.3067 14.8467 17.3364 14.8632 17.3577 14.8883C17.379 14.9135 17.3904 14.9455 17.3896 14.9785C17.3876 15.0075 17.3805 15.0359 17.3686 15.0625H17.3686Z" fill="#1F2937"/>
</svg>
