<svg width="23" height="23" viewBox="0 0 23 23" fill="none" xmlns="http://www.w3.org/2000/svg">
<path d="M11.6467 0.475952C9.44825 0.475952 7.29922 1.12786 5.47131 2.34922C3.6434 3.57059 2.21872 5.30657 1.37742 7.33763C0.536127 9.36869 0.316006 11.6036 0.744894 13.7598C1.17378 15.9159 2.23242 17.8965 3.78693 19.451C5.34143 21.0055 7.322 22.0642 9.47816 22.493C11.6343 22.9219 13.8693 22.7018 15.9003 21.8605C17.9314 21.0192 19.6674 19.5945 20.8887 17.7666C22.1101 15.9387 22.762 13.7897 22.762 11.5913C22.762 8.64332 21.5909 5.81609 19.5064 3.73156C17.4219 1.64703 14.5946 0.475952 11.6467 0.475952V0.475952ZM16.6573 10.3525C15.6657 10.4622 14.816 10.0702 13.9663 9.57005C13.9663 9.65195 13.9911 12.1909 13.9487 13.4019C13.9063 14.6465 13.4617 15.742 12.4862 16.5595C10.4181 18.2956 7.48279 17.3581 6.78224 14.7036C6.40197 13.2571 6.73251 11.954 7.86744 10.9229C8.50658 10.3379 9.29489 10.0776 10.1402 9.96932C10.3216 9.94592 10.5044 9.93569 10.7004 9.91813V11.8838C10.4518 11.9452 10.2002 11.9993 9.95303 12.0725C9.78156 12.122 9.6143 12.1851 9.45284 12.2611C9.22759 12.3624 9.02869 12.5142 8.87154 12.7048C8.7144 12.8953 8.60324 13.1195 8.54667 13.3599C8.4901 13.6003 8.48964 13.8505 8.54534 14.0912C8.60103 14.3318 8.71138 14.5563 8.86782 14.7475C9.05596 15.0076 9.31184 15.2111 9.60762 15.3359C9.9034 15.4608 10.2277 15.502 10.5454 15.4553C11.1845 15.3778 11.5852 14.9756 11.8222 14.3979C11.986 13.9407 12.0571 13.4554 12.0313 12.9705C12.0225 10.5836 12.0225 8.19818 12.0181 5.81131C12.0202 5.78676 12.0236 5.76235 12.0284 5.73818H13.937C14.1505 7.33528 14.9608 8.34736 16.6573 8.49069V10.3525Z" fill="#1F2937"/>
</svg>
